<?xml version="1.0" encoding="UTF-8"?>
<svg width="16px" height="18px" viewBox="0 0 16 18" version="1.1" xmlns="http://www.w3.org/2000/svg" xmlns:xlink="http://www.w3.org/1999/xlink">
    <!-- Generator: sketchtool 54.1 (76490) - https://sketchapp.com -->
    <title>57F5E853-536B-4454-B9BF-95CAFE794151@1.00x</title>
    <desc>Created with sketchtool.</desc>
    <g id="Dashboard" stroke="none" stroke-width="1" fill="none" fill-rule="evenodd">
        <g transform="translate(-56.000000, -334.000000)" fill="#181C27" fill-rule="nonzero" id="Applications">
            <g transform="translate(36.000000, 197.000000)">
                <g id="Application">
                    <g id="Items" transform="translate(20.000000, 80.000000)">
                        <g id="Item" transform="translate(0.000000, 49.000000)">
                            <g id="Box-Icon" transform="translate(0.000000, 8.000000)">
                                <path d="M6.09428036,6.98131669 L8.0080078,8.06791655 L13.5735844,4.92261963 L11.587527,3.79468006 L6.09428036,6.98131669 Z M9.94883424,2.86401899 L8,1.75721958 L2.44744956,4.91067393 L4.45539268,6.05076873 L9.94883424,2.86401899 Z M8.8,15.7934191 L14.4,12.6044414 L14.4,6.32394262 L8.8,9.483091 L8.8,15.7934191 Z M7.2,9.48153436 L1.6,6.30126 L1.6,12.6173234 L7.2,15.7950293 L7.2,9.48153436 Z M0.411485656,4.1938713 L7.61148564,0.10296223 C7.85310368,-0.0343207432 8.14689632,-0.0343207432 8.38851436,0.10296223 L15.5885144,4.1938713 C15.8424865,4.33817366 16,4.61195415 16,4.90909091 L16,13.0909091 C16,13.3880459 15.8424865,13.6618263 15.5885144,13.8061287 L8.38851436,17.8970378 C8.14689632,18.0343207 7.85310368,18.0343207 7.61148564,17.8970378 L0.411485656,13.8061287 C0.157513508,13.6618263 0,13.3880459 0,13.0909091 L0,4.90909091 C0,4.61195415 0.157513508,4.33817366 0.411485656,4.1938713 Z M2.81675656,9.96086622 C2.43166096,9.73934914 2.29506377,9.24049735 2.51165824,8.84664957 C2.72825272,8.45280176 3.21601892,8.31310012 3.60111452,8.53461716 L5.5939368,9.68094065 C5.9790324,9.9024577 6.1156296,10.4013095 5.89903512,10.7951573 C5.68244064,11.1890051 5.19467444,11.3287068 4.80957884,11.1071897 L2.81675656,9.96086622 Z" id="Combined-Shape"></path>
                            </g>
                        </g>
                    </g>
                </g>
            </g>
        </g>
    </g>
</svg>