<?xml version="1.0" encoding="UTF-8"?>
<svg width="16px" height="16px" viewBox="0 0 16 16" version="1.1" xmlns="http://www.w3.org/2000/svg" xmlns:xlink="http://www.w3.org/1999/xlink">
    <!-- Generator: sketchtool 54.1 (76490) - https://sketchapp.com -->
    <title>C3F31C9A-B099-456B-9049-600C3F0C1FAE@1.00x</title>
    <desc>Created with sketchtool.</desc>
    <g id="Dashboard" stroke="none" stroke-width="1" fill="none" fill-rule="evenodd">
        <g transform="translate(-404.000000, -217.000000)" fill="#FFFFFF" fill-rule="nonzero" id="Applications">
            <g transform="translate(36.000000, 197.000000)">
                <g id="Application" transform="translate(348.000000, 0.000000)">
                    <g id="Header">
                        <g id="Check-Icon" transform="translate(20.000000, 20.000000)">
                            <path d="M8,16 C3.581722,16 0,12.418278 0,8 C0,3.581722 3.581722,0 8,0 C12.418278,0 16,3.581722 16,8 C16,12.418278 12.418278,16 8,16 Z M8,14.4 C11.5346224,14.4 14.4,11.5346224 14.4,8 C14.4,4.4653776 11.5346224,1.6 8,1.6 C4.4653776,1.6 1.6,4.4653776 1.6,8 C1.6,11.5346224 4.4653776,14.4 8,14.4 Z M6.23431456,10.9656854 L3.83431456,8.56568544 C3.52189516,8.253266 3.52189516,7.746734 3.83431456,7.43431456 C4.146734,7.12189516 4.653266,7.12189516 4.96568544,7.43431456 L6.8,9.27989564 L10.6343146,5.43431456 C10.946734,5.12189516 11.453266,5.12189516 11.7656854,5.43431456 C12.0781048,5.746734 12.0781048,6.253266 11.7656854,6.56568544 L7.36568544,10.9656854 C7.053266,11.2781048 6.546734,11.2781048 6.23431456,10.9656854 Z" id="Icon"></path>
                        </g>
                    </g>
                </g>
            </g>
        </g>
    </g>
</svg>