<?xml version="1.0" encoding="UTF-8"?>
<svg width="16px" height="19px" viewBox="0 0 16 19" version="1.1" xmlns="http://www.w3.org/2000/svg" xmlns:xlink="http://www.w3.org/1999/xlink">
    <!-- Generator: sketchtool 54.1 (76490) - https://sketchapp.com -->
    <title>8DDE2B21-966E-4FDD-9043-03D0E3DF6ECC@1.00x</title>
    <desc>Created with sketchtool.</desc>
    <g id="Dashboard" stroke="none" stroke-width="1" fill="none" fill-rule="evenodd">
        <g transform="translate(-56.000000, -215.000000)" fill="#FFFFFF" fill-rule="nonzero" id="Applications">
            <g transform="translate(36.000000, 197.000000)">
                <g id="Application">
                    <g id="Header">
                        <g id="Clock-Icon" transform="translate(20.000000, 18.000000)">
                            <path d="M12.1177512,5.11313626 L13.2335689,4.01998366 C13.6118996,3.64933779 14.2265566,3.65057388 14.6035611,4.01992044 L15.2906713,4.69307377 C15.6689664,5.06368473 15.671637,5.66194742 15.2906068,6.035238 L14.1747891,7.1283906 C15.0207018,8.345733 15.5151515,9.81629694 15.5151515,11.4 C15.5151515,15.5973641 12.0419665,19 7.75757576,19 C3.47318497,19 0,15.5973641 0,11.4 C0,7.52436323 2.96115239,4.32629226 6.78787879,3.85879906 L6.78787879,2.85 L5.82231767,2.85 C5.28448465,2.85 4.84848485,2.42332621 4.84848485,1.90099127 L4.84848485,0.949008732 C4.84848485,0.424885681 5.28579413,0 5.82231767,0 L9.69283384,0 C10.2306669,0 10.6666667,0.426673795 10.6666667,0.949008732 L10.6666667,1.90099127 C10.6666667,2.42511432 10.2293574,2.85 9.69283384,2.85 L8.72727273,2.85 L8.72727273,3.85879906 C9.97332238,4.01102312 11.127598,4.45276172 12.1177512,5.11313626 Z M7.75757576,17.1 C10.9708688,17.1 13.5757576,14.5480231 13.5757576,11.4 C13.5757576,8.25197692 10.9708688,5.7 7.75757576,5.7 C4.54428267,5.7 1.93939394,8.25197692 1.93939394,11.4 C1.93939394,14.5480231 4.54428267,17.1 7.75757576,17.1 Z M6.78787879,7.60405184 C6.78787879,7.07714356 7.21829314,6.65 7.75757576,6.65 C8.29312461,6.65 8.72727273,7.07842644 8.72727273,7.60405184 L8.72727273,11.3959482 C8.72727273,11.9228564 8.29685838,12.35 7.75757576,12.35 C7.22202691,12.35 6.78787879,11.9215736 6.78787879,11.3959482 L6.78787879,7.60405184 Z" id="Icon"></path>
                        </g>
                    </g>
                </g>
            </g>
        </g>
    </g>
</svg>