<?xml version="1.0" encoding="UTF-8"?>
<svg width="58px" height="55px" viewBox="0 0 58 55" version="1.1" xmlns="http://www.w3.org/2000/svg" xmlns:xlink="http://www.w3.org/1999/xlink">
    <!-- Generator: sketchtool 55.2 (78181) - https://sketchapp.com -->
    <title>95501D07-1E32-49C7-85E1-6FA4569751B5@1.00x</title>
    <desc>Created with sketchtool.</desc>
    <g id="Dashboard" stroke="none" stroke-width="1" fill="none" fill-rule="evenodd">
        <g id="Dashboard-No-Applications" transform="translate(-691.000000, -192.000000)">
            <g id="Copy" transform="translate(384.000000, 192.000000)">
                <g id="checklist-icon" transform="translate(307.000000, 0.000000)">
                    <path d="M54.375,2.39130435 L50.75,2.39130435 L50.75,46.6304348 C50.749201,47.2904475 50.2086795,47.8252964 49.5416667,47.826087 L16.9166667,47.826087 L16.9166667,51.4130435 C16.9174656,52.0730562 17.4579872,52.6079051 18.125,52.6086957 L54.375,52.6086957 C55.0420128,52.6079051 55.5825344,52.0730562 55.5833333,51.4130435 L55.5833333,3.58695652 C55.5825344,2.92694381 55.0420128,2.39209494 54.375,2.39130435 L54.375,2.39130435 Z" id="Path" fill-opacity="0.2" fill="#0BD7A4" fill-rule="nonzero"></path>
                    <path d="M54.375,0 L18.125,0 C16.1229678,0 14.5,1.60593514 14.5,3.58695652 L14.5,51.4130435 C14.5,53.3940649 16.1229678,55 18.125,55 L54.375,55 C56.3770322,55 58,53.3940649 58,51.4130435 L58,3.58695652 C58,1.60593514 56.3770322,0 54.375,0 Z M55.5833333,51.4130435 C55.5825344,52.0730562 55.0420128,52.6079051 54.375,52.6086957 L18.125,52.6086957 C17.4579872,52.6079051 16.9174656,52.0730562 16.9166667,51.4130435 L16.9166667,3.58695652 C16.9174656,2.92694381 17.4579872,2.39209494 18.125,2.39130435 L54.375,2.39130435 C55.0420128,2.39209494 55.5825344,2.92694381 55.5833333,3.58695652 L55.5833333,51.4130435 Z" id="Shape" fill="#41BF93"></path>
                    <path d="M49.5416667,14.3478261 L35.0416667,14.3478261 C34.3743226,14.3478261 33.8333333,14.8831378 33.8333333,15.5434783 C33.8333333,16.2038187 34.3743226,16.7391304 35.0416667,16.7391304 L49.5416667,16.7391304 C50.2090107,16.7391304 50.75,16.2038187 50.75,15.5434783 C50.75,14.8831378 50.2090107,14.3478261 49.5416667,14.3478261 Z" id="Path" fill="#41BF93"></path>
                    <path d="M29.3540417,12.3068478 L25.375,16.2441304 L23.812625,14.6981522 C23.3385005,14.2450332 22.5848559,14.2515135 22.1187609,14.7127169 C21.6526659,15.1739204 21.6461169,15.9196557 22.1040417,16.3888043 L24.5207083,18.7801087 C24.9925623,19.2468697 25.7574377,19.2468697 26.2292917,18.7801087 L31.062625,13.9975 C31.3767392,13.6973023 31.5027152,13.2527547 31.3921341,12.8347195 C31.2815529,12.4166843 30.9516236,12.0902175 30.5291547,11.9807969 C30.1066858,11.8713762 29.6574233,11.9960302 29.3540417,12.3068478 L29.3540417,12.3068478 Z" id="Path" fill="#0BD7A4" fill-rule="nonzero"></path>
                    <path d="M49.5416667,26.3043478 L35.0416667,26.3043478 C34.3743226,26.3043478 33.8333333,26.8396595 33.8333333,27.5 C33.8333333,28.1603405 34.3743226,28.6956522 35.0416667,28.6956522 L49.5416667,28.6956522 C50.2090107,28.6956522 50.75,28.1603405 50.75,27.5 C50.75,26.8396595 50.2090107,26.3043478 49.5416667,26.3043478 Z" id="Path" fill="#41BF93"></path>
                    <path d="M29.3540417,24.2633696 L25.375,28.2006522 L23.812625,26.6546739 C23.3385005,26.201555 22.5848559,26.2080352 22.1187609,26.6692387 C21.6526659,27.1304421 21.6461169,27.8761774 22.1040417,28.3453261 L24.5207083,30.7366304 C24.9925623,31.2033914 25.7574377,31.2033914 26.2292917,30.7366304 L31.062625,25.9540217 C31.5205498,25.4848731 31.5140008,24.7391378 31.0479058,24.2779343 C30.5818108,23.8167309 29.8281662,23.8102506 29.3540417,24.2633696 Z" id="Path" fill="#41BF93"></path>
                    <path d="M49.5416667,38.2608696 L35.0416667,38.2608696 C34.3743226,38.2608696 33.8333333,38.7961813 33.8333333,39.4565217 C33.8333333,40.1168622 34.3743226,40.6521739 35.0416667,40.6521739 L49.5416667,40.6521739 C50.2090107,40.6521739 50.75,40.1168622 50.75,39.4565217 C50.75,38.7961813 50.2090107,38.2608696 49.5416667,38.2608696 Z" id="Path" fill="#41BF93"></path>
                    <path d="M29.3540417,36.2198913 L25.375,40.1571739 L23.812625,38.6111957 C23.3385005,38.1580767 22.5848559,38.1645569 22.1187609,38.6257604 C21.6526659,39.0869639 21.6461169,39.8326992 22.1040417,40.3018478 L24.5207083,42.6931522 C24.9925623,43.1599132 25.7574377,43.1599132 26.2292917,42.6931522 L31.062625,37.9105435 C31.5205498,37.4413948 31.5140008,36.6956595 31.0479058,36.2344561 C30.5818108,35.7732526 29.8281662,35.7667724 29.3540417,36.2198913 Z" id="Path" fill="#41BF93"></path>
                    <path d="M6.04166667,0 L3.625,0 C1.62296778,0 -2.22044605e-16,1.60593514 -2.22044605e-16,3.58695652 L-2.22044605e-16,51.4130435 C-2.22044605e-16,53.3940649 1.62296778,55 3.625,55 L6.04166667,55 C8.04369888,55 9.66666667,53.3940649 9.66666667,51.4130435 L9.66666667,3.58695652 C9.66666667,1.60593514 8.04369888,0 6.04166667,0 Z M7.25,51.4130435 C7.24920102,52.0730562 6.70867951,52.6079051 6.04166667,52.6086957 L3.625,52.6086957 C2.95798716,52.6079051 2.41746564,52.0730562 2.41666667,51.4130435 L2.41666667,11.9565217 L7.25,11.9565217 L7.25,51.4130435 Z M7.25,9.56521739 L2.41666667,9.56521739 L2.41666667,3.58695652 C2.41746564,2.92694381 2.95798716,2.39209494 3.625,2.39130435 L6.04166667,2.39130435 C6.70867951,2.39209494 7.24920102,2.92694381 7.25,3.58695652 L7.25,9.56521739 Z" id="Shape" fill="#41BF93"></path>
                </g>
            </g>
        </g>
    </g>
</svg>