<?xml version="1.0" encoding="UTF-8"?>
<svg width="16px" height="16px" viewBox="0 0 16 16" version="1.1" xmlns="http://www.w3.org/2000/svg" xmlns:xlink="http://www.w3.org/1999/xlink">
    <!-- Generator: sketchtool 54.1 (76490) - https://sketchapp.com -->
    <title>32E1F102-BB62-425E-B01B-6760B56A1734@1.00x</title>
    <desc>Created with sketchtool.</desc>
    <g id="Dashboard" stroke="none" stroke-width="1" fill="none" fill-rule="evenodd">
        <g transform="translate(-56.000000, -286.000000)" fill="#181C27" fill-rule="nonzero" id="Applications">
            <g transform="translate(36.000000, 197.000000)">
                <g id="Application">
                    <g id="Items" transform="translate(20.000000, 80.000000)">
                        <g id="Item">
                            <g id="Import-Icon" transform="translate(8.000000, 17.000000) scale(1, -1) translate(-8.000000, -17.000000) translate(0.000000, 9.000000)">
                                <path d="M5.33333333,3.03485649 L5.33333333,15.1606167 C5.33333333,15.6241953 4.93878684,16 4.44444444,16 C3.95352467,16 3.55555556,15.6264648 3.55555556,15.1606167 L3.55555556,3.03485649 L1.51742825,5.07298382 C1.17029555,5.42011649 0.607482231,5.42011649 0.260349529,5.07298382 C-0.0867831778,4.72585111 -0.0867831778,4.16303778 0.260349529,3.81590507 L3.81590507,0.260349529 C4.16303778,-0.0867831778 4.72585111,-0.0867831778 5.07298382,0.260349529 L8.62853938,3.81590507 C8.97567204,4.16303778 8.97567204,4.72585111 8.62853938,5.07298382 C8.28140667,5.42011649 7.71859333,5.42011649 7.37146062,5.07298382 L5.33333333,3.03485649 Z M12.4444444,9.25707871 L12.4444444,15.1606167 C12.4444444,15.6241953 12.049898,16 11.5555556,16 C11.0646358,16 10.6666667,15.6264648 10.6666667,15.1606167 L10.6666667,9.25707871 L8.62853938,11.295206 C8.28140667,11.6423387 7.71859333,11.6423387 7.37146062,11.295206 C7.02432796,10.9480733 7.02432796,10.38526 7.37146062,10.0381273 L10.9270162,6.48257173 C11.2741489,6.13543907 11.8369622,6.13543907 12.1840949,6.48257173 L15.7396505,10.0381273 C16.0867832,10.38526 16.0867832,10.9480733 15.7396505,11.295206 C15.3925178,11.6423387 14.8297044,11.6423387 14.4825717,11.295206 L12.4444444,9.25707871 Z" id="Icon"></path>
                            </g>
                        </g>
                    </g>
                </g>
            </g>
        </g>
    </g>
</svg>