<?xml version="1.0" encoding="UTF-8"?>
<svg width="16px" height="14px" viewBox="0 0 16 14" version="1.1" xmlns="http://www.w3.org/2000/svg" xmlns:xlink="http://www.w3.org/1999/xlink">
    <!-- Generator: sketchtool 54.1 (76490) - https://sketchapp.com -->
    <title>90124788-475F-4E08-B86F-758761AC93C9@1.00x</title>
    <desc>Created with sketchtool.</desc>
    <g id="Dashboard" stroke="none" stroke-width="1" fill="none" fill-rule="evenodd">
        <g transform="translate(-56.000000, -385.000000)" fill="#000000" fill-rule="nonzero" id="Applications">
            <g transform="translate(36.000000, 197.000000)">
                <g id="Application">
                    <g id="Items" transform="translate(20.000000, 80.000000)">
                        <g id="Item" transform="translate(0.000000, 98.000000)">
                            <g id="Money-Icon" transform="translate(0.000000, 10.000000)">
                                <path d="M8.80368196,14 L2.39631806,14 C1.95652374,14 1.6,13.6492415 1.6,13.2189049 L1.6,10.1144284 C1.6,9.68304151 1.95928495,9.33333333 2.39631806,9.33333333 L3.2,9.33333333 L3.2,7.77777778 L2.39631806,7.77777778 C1.95652374,7.77777778 1.6,7.42701929 1.6,6.9966827 L1.6,4.66666667 L0.796318056,4.66666667 C0.356523736,4.66666667 0,4.31590818 0,3.88557159 L0,0.781095078 C0,0.349708178 0.359284952,0 0.796318056,0 L7.20368196,0 C7.64347628,0 8,0.350758473 8,0.781095078 L8,3.11111111 L8.80368196,3.11111111 C9.24347628,3.11111111 9.6,3.4618696 9.6,3.89220619 L9.6,6.22222222 L12,6.22222222 C14.209139,6.22222222 16,7.96333708 16,10.1111111 C16,12.2588851 14.209139,14 12,14 C11.0995115,14 10.2685215,13.7107072 9.59999168,13.2225009 C9.59800168,13.6522336 9.23950004,14 8.80368196,14 Z M4.8,7.77777778 L4.8,9.33333333 L8.08001448,9.33333333 C8.20000188,8.75865076 8.45033548,8.22998606 8.79970704,7.77777778 L4.8,7.77777778 Z M1.6,1.55555556 L1.6,3.11111111 L6.4,3.11111111 L6.4,1.55555556 L1.6,1.55555556 Z M3.2,4.66666667 L3.2,6.22222222 L8,6.22222222 L8,4.66666667 L3.2,4.66666667 Z M3.2,10.8888889 L3.2,12.4444444 L8,12.4444444 L8,10.8888889 L3.2,10.8888889 Z M12,12.4444444 C13.3254834,12.4444444 14.4,11.3997755 14.4,10.1111111 C14.4,8.82244669 13.3254834,7.77777778 12,7.77777778 C10.6745166,7.77777778 9.6,8.82244669 9.6,10.1111111 C9.6,11.3997755 10.6745166,12.4444444 12,12.4444444 Z" id="Combined-Shape"></path>
                            </g>
                        </g>
                    </g>
                </g>
            </g>
        </g>
    </g>
</svg>