<?xml version="1.0" encoding="UTF-8"?>
<svg width="15px" height="18px" viewBox="0 0 15 18" version="1.1" xmlns="http://www.w3.org/2000/svg" xmlns:xlink="http://www.w3.org/1999/xlink">
    <!-- Generator: sketchtool 54.1 (76490) - https://sketchapp.com -->
    <title>DA63B768-B28C-4C60-BA12-B8E5C17808E6@1.00x</title>
    <desc>Created with sketchtool.</desc>
    <g id="Navigation" stroke="none" stroke-width="1" fill="none" fill-rule="evenodd" opacity="0.5">
        <g id="Navigation/Header" transform="translate(-1348.000000, -30.000000)" fill="#181C27" fill-rule="nonzero">
            <g id="Header">
                <g id="Notification-Icon" transform="translate(1348.000000, 30.000000)">
                    <path d="M2.50177404,15.5454545 C1.12078315,15.5454545 0,14.4453661 0,13.0909091 C0,12.1919213 0.495764733,11.3906578 1.2535179,10.9627149 C1.25351787,10.7144095 1.25,7.7715718 1.25,7.7715718 C1.25,4.94435504 3.18308038,2.56406805 5.83333333,1.85296039 L5.83333333,1.63636364 C5.83333333,0.732624955 6.57952542,0 7.5,0 C8.42047458,0 9.16666667,0.732624955 9.16666667,1.63636364 L9.16666667,1.85296039 C11.8174872,2.56391803 13.75,4.94441836 13.75,7.77583469 L13.75,10.9698595 C14.5086425,11.3998156 15,12.1977416 15,13.0909091 C15,14.447122 13.8808596,15.5454545 12.498226,15.5454545 L9.99999867,15.5454545 C9.99858992,16.9012994 8.87703667,18 7.5,18 C6.11928812,18 5,16.902186 5,15.5472136 L2.50177404,15.5454545 Z M6.66666667,15.5454545 C6.66666667,15.9980339 7.03934183,16.3636364 7.5,16.3636364 C7.95743521,16.3636364 8.33191921,15.9967103 8.33332933,15.5454545 L6.66666667,15.5454545 Z M12.0833333,11.7295325 L12.0833333,7.77583469 C12.0833333,5.28605292 10.0327917,3.27272727 7.5,3.27272727 C4.96823942,3.27272727 2.91666667,5.28673001 2.91666667,7.7715718 L2.91666667,11.7295108 C2.91666667,11.9583655 2.73770171,12.1857663 2.51693721,12.2415657 L2.2910895,12.2986499 C1.92625371,12.3908641 1.66666667,12.715322 1.66666667,13.0909091 C1.66666667,13.5415219 2.04115033,13.9090909 2.50177404,13.9090909 L12.498226,13.9090909 C12.9605411,13.9090909 13.3333333,13.5432299 13.3333333,13.0909091 C13.3333333,12.7169557 13.0726888,12.3912304 12.708091,12.2986886 L12.4895811,12.2432266 C12.2674021,12.1868334 12.0833333,11.95629 12.0833333,11.7295325 Z" id="Combined-Shape"></path>
                </g>
            </g>
        </g>
    </g>
</svg>