<?xml version="1.0" encoding="UTF-8"?>
<svg width="16px" height="16px" viewBox="0 0 16 16" version="1.1" xmlns="http://www.w3.org/2000/svg" xmlns:xlink="http://www.w3.org/1999/xlink">
    <!-- Generator: sketchtool 54.1 (76490) - https://sketchapp.com -->
    <title>4C62746C-0621-4B83-9A6D-4B607CA10C5F@1.00x</title>
    <desc>Created with sketchtool.</desc>
    <g id="Dashboard" stroke="none" stroke-width="1" fill="none" fill-rule="evenodd" opacity="0.5">
        <g transform="translate(-1100.000000, -217.000000)" fill="#181C27" fill-rule="nonzero" id="Applications">
            <g transform="translate(36.000000, 197.000000)">
                <g id="Application" transform="translate(1044.000000, 0.000000)">
                    <g id="Header">
                        <g id="reciept-icon" transform="translate(20.000000, 20.000000)">
                            <path d="M14.4424761,3.2 C15.3029124,3.2 16,3.91387584 16,4.79656032 L16,14.6607639 C16,15.681382 15.094996,16.276321 14.1885869,15.8621474 L12.8858613,15.266135 L11.2494969,15.9425355 C11.0632872,16.0190646 10.8554779,16.019158 10.6692027,15.9427964 L8.97560976,15.2661354 L7.66378681,15.8709205 C6.75374349,16.2763384 5.85365854,15.6805081 5.85365854,14.6607639 L5.85365854,12.5532929 L5.39583836,12.7425355 C5.20962868,12.8190646 5.00181932,12.819158 4.8155442,12.7427964 L3.12195122,12.0661354 L1.81012829,12.6709205 C0.900084956,13.0763384 0,12.4805081 0,11.4607639 L0,1.59656033 C0,0.714689732 0.696737713,0 1.5575239,0 L8.58881756,0 C9.44925381,0 10.1463415,0.713875824 10.1463415,1.59656033 L10.1463415,3.2 L14.4424761,3.2 Z M8.58881756,1.6 L1.56097561,1.59656033 L1.56097561,11.0404541 L2.84276078,10.4663023 C3.03385748,10.3811701 3.25023095,10.377894 3.44369744,10.4572036 L5.07833951,11.1254635 L5.85365854,10.8177538 L5.85365854,8 L3.12423754,8 C2.69192332,8 2.34146341,7.64490816 2.34146341,7.2 C2.34146341,6.7581722 2.69153565,6.4 3.12423754,6.4 L5.85365854,6.4 L5.85365854,4.8 L3.12423754,4.8 C2.69192332,4.8 2.34146341,4.44490816 2.34146341,4 C2.34146341,3.5581722 2.69153565,3.2 3.12423754,3.2 L8.58765225,3.2 C8.58805764,2.24608014 8.58881756,1.6 8.58881756,1.6 Z M14.4424761,4.8 L7.41463415,4.79656032 L7.41463415,14.2404541 L8.69641932,13.6663023 C8.88751602,13.5811701 9.10388948,13.577894 9.29735598,13.6572036 L10.931998,14.3254635 L12.6151182,13.6574645 C12.8110877,13.5769243 13.030531,13.5812005 13.2233724,13.6693172 L14.4390244,14.2290551 L14.4424761,4.8 Z M8.19512195,10.4 C8.19512195,9.9581722 8.54519419,9.6 8.97789608,9.6 L12.8757625,9.6 C13.3080767,9.6 13.6585366,9.95509184 13.6585366,10.4 C13.6585366,10.8418278 13.3084644,11.2 12.8757625,11.2 L8.97789608,11.2 C8.54558185,11.2 8.19512195,10.8449082 8.19512195,10.4 Z M8.19512195,7.2 C8.19512195,6.7581722 8.54519419,6.4 8.97789608,6.4 L12.8757625,6.4 C13.3080767,6.4 13.6585366,6.75509184 13.6585366,7.2 C13.6585366,7.6418278 13.3084644,8 12.8757625,8 L8.97789608,8 C8.54558185,8 8.19512195,7.64490816 8.19512195,7.2 Z" id="Combined-Shape"></path>
                        </g>
                    </g>
                </g>
            </g>
        </g>
    </g>
</svg>