<?xml version="1.0" encoding="UTF-8"?>
<svg width="16px" height="12px" viewBox="0 0 16 12" version="1.1" xmlns="http://www.w3.org/2000/svg" xmlns:xlink="http://www.w3.org/1999/xlink">
    <!-- Generator: sketchtool 54.1 (76490) - https://sketchapp.com -->
    <title>138228FD-CA50-45BD-A015-A173B64864CC@1.00x</title>
    <desc>Created with sketchtool.</desc>
    <g id="Dashboard" stroke="none" stroke-width="1" fill="none" fill-rule="evenodd">
        <g transform="translate(-56.000000, -435.000000)" fill="#181C27" fill-rule="nonzero" id="Applications">
            <g transform="translate(36.000000, 197.000000)">
                <g id="Application">
                    <g id="Items" transform="translate(20.000000, 80.000000)">
                        <g id="Item" transform="translate(0.000000, 147.000000)">
                            <g id="Send-Icon" transform="translate(0.000000, 11.000000)">
                                <path d="M9.79654083,6.9430764 L8.95246429,7.80473787 C8.69835915,8.0641369 8.28670237,8.0652223 8.03128793,7.80716677 L6.7349296,6.49740343 C6.47857927,6.2384023 6.4764432,5.81629793 6.7301586,5.55460697 C6.98387399,5.292916 7.39736398,5.29073543 7.65371432,5.54973657 L8.49068029,6.408252 L13.4470401,1.33333333 L0.653061224,1.33333333 C0.292385469,1.33333333 0,1.0348565 0,0.666666667 C0,0.298476833 0.292385469,0 0.653061224,0 L14.3691157,0 C15.0907371,0 15.6743538,0.595671393 15.6743538,1.33391443 L15.6743538,10.6660856 C15.6743538,11.4026257 15.091013,12 14.3691157,12 L4.57142857,12 C4.21075282,12 3.91836735,11.7015232 3.91836735,11.3333333 C3.91836735,10.9651435 4.21075282,10.6666667 4.57142857,10.6666667 C4.57142857,10.6666667 11.0040747,10.6670073 13.4444572,10.6665514 L9.79654083,6.9430764 Z M14.3691486,2.27520593 L10.7201089,6.00026733 L14.3683505,9.7240743 L14.3691486,2.27520593 Z M1.30700682,4 C1.30700682,3.63181017 1.59992441,3.33333333 1.96198107,3.33333333 L5.22346113,3.33333333 C5.58519344,3.33333333 5.8784354,3.6292432 5.8784354,4 C5.8784354,4.36818983 5.58551781,4.66666667 5.22346113,4.66666667 L1.96198107,4.66666667 C1.60024878,4.66666667 1.30700682,4.3707568 1.30700682,4 Z M2.61312927,8 C2.61312927,7.63181017 2.9029034,7.33333333 3.26606478,7.33333333 L5.22549989,7.33333333 C5.58610622,7.33333333 5.8784354,7.6292432 5.8784354,8 C5.8784354,8.36818983 5.58866126,8.66666667 5.22549989,8.66666667 L3.26606478,8.66666667 C2.90545845,8.66666667 2.61312927,8.3707568 2.61312927,8 Z" id="Combined-Shape"></path>
                            </g>
                        </g>
                    </g>
                </g>
            </g>
        </g>
    </g>
</svg>