<?xml version="1.0" encoding="UTF-8"?>
<svg width="17px" height="18px" viewBox="0 0 17 18" version="1.1" xmlns="http://www.w3.org/2000/svg" xmlns:xlink="http://www.w3.org/1999/xlink">
    <!-- Generator: sketchtool 54.1 (76490) - https://sketchapp.com -->
    <title>F995DF78-A574-418F-A818-452D204FC2FB@1.00x</title>
    <desc>Created with sketchtool.</desc>
    <g id="Navigation" stroke="none" stroke-width="1" fill="none" fill-rule="evenodd" opacity="0.5">
        <g id="Navigation/Header" transform="translate(-1387.000000, -30.000000)" fill="#181C27" fill-rule="nonzero">
            <g id="Header">
                <g id="Settings-Icon" transform="translate(1387.000000, 30.000000)">
                    <path d="M11.3860173,2.96666564 L12.0506898,3.3568537 C12.0506898,3.3568537 14.0350984,3.00848247 14.150391,2.9978743 C14.7508676,2.92377987 15.3975873,3.24817254 15.6996505,3.77443903 L16.5325567,5.22556096 C16.8358918,5.75404335 16.792371,6.48229 16.4413909,6.94306521 C16.3599119,7.05842906 15.0699204,8.61256404 15.0699204,8.61256404 C15.0699204,8.61256404 15.0779816,8.72734009 15.0779816,9 C15.0779816,9.13139487 15.0667813,9.39282219 15.0667813,9.39282219 C15.0667813,9.39282219 16.3599119,10.9415709 16.4266681,11.0366926 C16.7906145,11.5227186 16.8345907,12.2482236 16.5325567,12.774439 L15.6996505,14.225561 C15.3962871,14.7540928 14.7474339,15.0802513 14.1694364,15.0042756 C14.1646594,15.0038037 12.0400182,14.6420697 12.0400182,14.6420697 L11.3860176,15.0299564 C11.3860176,15.0299564 10.6920366,16.9332382 10.643549,17.0388851 C10.4070727,17.598939 9.80442942,18 9.20036144,18 L7.53454911,18 C6.92782215,18 6.32258573,17.5978505 6.10138312,17.0616208 C6.04285279,16.9330385 5.34696227,15.0229018 5.34696227,15.0229018 L4.68021359,14.6404932 C4.68021359,14.6404932 2.69962953,14.9915989 2.5843362,15.0021925 C1.98391349,15.0762204 1.337294,14.7517764 1.03526002,14.225561 L0.202353864,12.774439 C-0.101009624,12.2459072 -0.0573928359,11.5175992 0.293678687,11.0567903 C0.375159978,10.9414526 1.66642537,9.38607633 1.66642537,9.38607633 C1.66642537,9.38607633 1.65692898,9.27273731 1.65692898,9 C1.65692898,8.87117243 1.6676964,8.61482489 1.6676964,8.61482489 C1.6676964,8.61482489 0.375159978,7.0585474 0.308391722,6.96343378 C-0.055639004,6.477394 -0.0997094148,5.75182746 0.202353864,5.22556096 L1.03526002,3.77443903 C1.33859516,3.24595665 1.98734748,2.91974517 2.55954698,2.99510325 C2.69962953,3.00840111 4.69981615,3.35886898 4.69981615,3.35886898 L5.35654387,2.96616798 C5.35654387,2.96616798 6.04285279,1.06696148 6.09132744,0.961308085 C6.32777333,0.401173884 6.93042257,0 7.53454911,0 L9.20036144,0 C9.80703171,0 10.4122633,0.402035162 10.6334826,0.938168473 C10.6920366,1.06676175 11.3860173,2.96666564 11.3860173,2.96666564 Z M9.91065087,4.27895064 L9.79047022,3.87452898 C9.61571814,3.28646808 9.12031819,1.95326679 9.06754165,1.82847754 C9.0369488,1.7561413 7.69800907,1.75616981 7.66742156,1.82851231 C7.61465615,1.95330778 7.11935283,3.28646533 6.94462204,3.87445194 L6.82443576,4.27889079 L6.43843756,4.44452089 C6.07368851,4.6010331 5.72919702,4.80165732 5.41223283,5.0415313 L5.07641478,5.29567362 L4.66754188,5.19798487 C4.07353776,5.05606419 2.67712591,4.82082579 2.54320761,4.80439323 C2.46557849,4.79486772 1.79610354,5.96128865 1.84312024,6.02413947 C1.92422621,6.13256008 2.82484705,7.2311359 3.24392734,7.67752052 L3.53173054,7.98407496 L3.48177242,8.40271365 C3.45826571,8.59969498 3.44640266,8.79900354 3.44640266,9 C3.44640266,9.20099646 3.45826571,9.40030502 3.48177242,9.59728635 L3.53173054,10.015925 L3.24392734,10.3224795 C2.82484705,10.7688641 1.92422621,11.8674399 1.84312024,11.9758605 C1.79610354,12.0387114 2.46557849,13.2051323 2.54320761,13.1956068 C2.67712591,13.1791742 4.07353776,12.9439358 4.66754188,12.8020151 L5.07641478,12.7043264 L5.41223283,12.9584687 C5.72919702,13.1983427 6.07368851,13.3989669 6.43843756,13.5554791 L6.82443576,13.7211092 L6.94462204,14.1255481 C7.11935283,14.7135347 7.61465615,16.0466922 7.66742156,16.1714877 C7.69800907,16.2438302 9.0369488,16.2438587 9.06754165,16.1715225 C9.12031819,16.0467332 9.61571814,14.7135319 9.79047022,14.125471 L9.91065087,13.7210494 L10.2966268,13.5554131 C10.6613705,13.3988884 11.0058553,13.1982523 11.3228115,12.9583674 L11.6586353,12.7042029 L12.0675256,12.8018953 C12.6614551,12.9437974 14.0577812,13.1790982 14.1916993,13.1955435 C14.2375629,13.2011756 14.9388553,12.0386844 14.8918466,11.975832 C14.8107515,11.8674049 13.9101413,10.768723 13.4910076,10.3222825 L13.2032163,10.0157415 L13.2531581,9.59711895 C13.2766516,9.40019211 13.2885079,9.20093953 13.2885079,9 C13.2885079,8.79906047 13.2766516,8.59980789 13.2531581,8.40288105 L13.2032163,7.98425847 L13.4910076,7.67771748 C13.9101413,7.23127703 14.8107515,6.13259514 14.8918466,6.02416796 C14.9388553,5.9613156 14.2693312,4.7949232 14.1916993,4.8044565 C14.0577812,4.82090184 12.6614551,5.05620261 12.0675256,5.19810466 L11.6586353,5.29579705 L11.3228115,5.04163255 C11.0058553,4.80174768 10.6613705,4.60111162 10.2966268,4.44458691 L9.91065087,4.27895064 Z M8.3674553,11.7 C6.88500676,11.7 5.68324477,10.4911688 5.68324477,9 C5.68324477,7.50883117 6.88500676,6.3 8.3674553,6.3 C9.84990383,6.3 11.0516658,7.50883117 11.0516658,9 C11.0516658,10.4911688 9.84990383,11.7 8.3674553,11.7 Z M8.3674553,9.9 C8.86160481,9.9 9.26219214,9.49705628 9.26219214,9 C9.26219214,8.50294372 8.86160481,8.1 8.3674553,8.1 C7.87330578,8.1 7.47271845,8.50294372 7.47271845,9 C7.47271845,9.49705628 7.87330578,9.9 8.3674553,9.9 Z" id="Combined-Shape"></path>
                </g>
            </g>
        </g>
    </g>
</svg>