<?xml version="1.0" encoding="UTF-8"?>
<svg width="16px" height="16px" viewBox="0 0 16 16" version="1.1" xmlns="http://www.w3.org/2000/svg" xmlns:xlink="http://www.w3.org/1999/xlink">
    <!-- Generator: sketchtool 54.1 (76490) - https://sketchapp.com -->
    <title>2A8A4821-6D9C-4BE5-81D5-B0C29264FDD8@1.00x</title>
    <desc>Created with sketchtool.</desc>
    <g id="Dashboard" stroke="none" stroke-width="1" fill="none" fill-rule="evenodd">
        <g transform="translate(-752.000000, -217.000000)" fill="#FFFFFF" fill-rule="nonzero" id="Applications">
            <g transform="translate(36.000000, 197.000000)">
                <g id="Application" transform="translate(696.000000, 0.000000)">
                    <g id="Header">
                        <g id="sports-01" transform="translate(20.000000, 20.000000)">
                            <path d="M0.8,4.8 L5.6,4.8 C6.0418278,4.8 6.4,5.1581722 6.4,5.6 L6.4,6.4 L8.8,6.4 L8.8,5.6 C8.8,5.1581722 9.1581722,4.8 9.6,4.8 L10.4,4.8 C13.4927946,4.8 16,7.3072054 16,10.4 C16,13.4927946 13.4927946,16 10.4,16 C7.5061934,16 5.12504732,13.8050392 4.8306242,10.98918 C4.64467772,10.9183106 0.547017788,9.55894664 0.547017788,9.55894664 C0.220344076,9.4500554 0,9.14434432 0,8.8 L0,5.6 C0,5.1581722 0.3581722,4.8 0.8,4.8 Z M4.8,7.2 L4.8,6.4 L1.60400391,6.4 L1.6,8.22873536 L5.8529822,9.64105336 C6.17965592,9.7499446 6.4,10.0556557 6.4,10.4 C6.4,12.609139 8.190861,14.4 10.4,14.4 C12.609139,14.4 14.4,12.609139 14.4,10.4 C14.4,8.190861 12.609139,6.4 10.4,6.4 L10.4,7.2 C10.4,7.6418278 10.0418278,8 9.6,8 L5.6,8 C5.1581722,8 4.8,7.6418278 4.8,7.2 Z M10.4,13.6 C9.9581722,13.6 9.6,13.2418278 9.6,12.8 C9.6,12.3581722 9.9581722,12 10.4,12 C11.2836556,12 12,11.2836556 12,10.4 C12,9.9581722 12.3581722,9.6 12.8,9.6 C13.2418278,9.6 13.6,9.9581722 13.6,10.4 C13.6,12.1673112 12.1673112,13.6 10.4,13.6 Z M6.8,0.799845992 C6.8,0.358103248 7.15509184,0 7.6,0 C8.0418278,0 8.4,0.354973316 8.4,0.799845992 L8.4,3.200154 C8.4,3.64189676 8.04490816,4 7.6,4 C7.1581722,4 6.8,3.64502668 6.8,3.200154 L6.8,0.799845992 Z M10.6423191,3.679007 C10.3775281,4.03269832 9.87614916,4.10476628 9.52245784,3.83997532 C9.16876652,3.57518436 9.09669856,3.0738054 9.36148952,2.72011408 L10.5595852,1.1197723 C10.8243762,0.766080976 11.3257551,0.694013 11.6794464,0.958803964 C12.0331378,1.22359493 12.1052058,1.72497389 11.8404148,2.0786652 L10.6423191,3.679007 Z M5.8400492,2.71962616 C6.10510964,3.0731156 6.0334238,3.57454932 5.6799344,3.83960976 C5.32644496,4.1046702 4.82501124,4.03298436 4.5599508,3.67949492 L3.3599508,2.07915313 C3.09489036,1.72566372 3.1665762,1.22422998 3.5200656,0.95916954 C3.87355504,0.6941091 4.37498876,0.765794952 4.6400492,1.11928437 L5.8400492,2.71962616 Z" id="Combined-Shape"></path>
                        </g>
                    </g>
                </g>
            </g>
        </g>
    </g>
</svg>