<?xml version="1.0" encoding="UTF-8"?>
<svg width="18px" height="18px" viewBox="0 0 18 18" version="1.1" xmlns="http://www.w3.org/2000/svg" xmlns:xlink="http://www.w3.org/1999/xlink">
    <!-- Generator: sketchtool 54.1 (76490) - https://sketchapp.com -->
    <title>4E69E0F6-64BE-40BA-A4CB-0B7418EB67E7@1.00x</title>
    <desc>Created with sketchtool.</desc>
    <g id="Navigation" stroke="none" stroke-width="1" fill="none" fill-rule="evenodd" opacity="0.5">
        <g id="Navigation/Header" transform="translate(-1306.000000, -30.000000)" fill="#181C27" fill-rule="nonzero">
            <g id="Header">
                <g id="User-Icon" transform="translate(1306.000000, 30.000000)">
                    <path d="M1.8,13.4914359 L1.8,14.712084 C2.11498066,14.9043061 4.63156083,16.1973273 8.99999978,16.1973267 C13.3684387,16.1973262 15.8853489,14.9056803 16.2,14.7135633 L16.2,13.4914359 C16.2,11.9469177 12.7736609,10.7457477 12.5294211,10.6537992 C11.7630178,12.0292661 10.6299683,13.0499997 9,13.05 C7.37089546,13.0500003 6.23818323,12.0303483 5.47179768,10.6559862 C5.2300363,10.7468443 1.8,11.9437866 1.8,13.4914359 Z M4.05,4.66078379 C4.05,2.08670398 6.26619051,0 9,0 C11.7338095,0 13.95,2.08670398 13.95,4.66078379 C13.95,5.75309952 13.759207,7.42904699 13.2422569,8.99659742 C15.044875,9.6852501 18,10.8006592 18,13.4914359 L18,15.2978711 C18,16.2924212 14.1164429,17.9999994 9,18 C3.88355715,18.0000006 0,16.2890282 0,15.2978711 L0,13.4914359 C0,10.7913757 2.95677896,9.68621746 4.75850718,8.99891383 C4.24098104,7.43069817 4.05,5.7536375 4.05,4.66078379 Z M8.99999969,11.25 C10.7726208,11.2499997 12.15,7.9943702 12.15,4.66078379 C12.15,3.10585113 10.7631167,1.8 9,1.8 C7.23688326,1.8 5.85,3.10585113 5.85,4.66078379 C5.85,7.99437046 7.22737917,11.2500003 8.99999969,11.25 Z" id="Combined-Shape"></path>
                </g>
            </g>
        </g>
    </g>
</svg>